<?xml version="1.0" encoding="UTF-8" standalone="no"?>
<!DOCTYPE svg PUBLIC "-//W3C//DTD SVG 1.1//EN" "http://www.w3.org/Graphics/SVG/1.1/DTD/svg11.dtd">
<svg width="100%" height="100%" viewBox="0 0 145 121" version="1.1" xmlns="http://www.w3.org/2000/svg" xml:space="preserve" xmlns:serif="http://www.serif.com/" style="fill-rule:evenodd;clip-rule:evenodd;stroke-linejoin:round;stroke-miterlimit:2;">
  <g id="g233" transform="matrix(1,0,0,1,0.01,-0.01)">
    <g id="g235">
      <path id="path245" d="M71.23,32.28C72.65,29.25 74.16,26.25 75.76,23.31C77.36,20.37 75.76,23.31 75.8,23.24C75.85,23.14 75.85,23.15 75.83,23.19C76.45,22.08 77.15,21 77.73,19.87C76.54,24.27 75.47,28.68 74.02,33.01C78.45,28.81 82.46,23.85 84.79,18.16C86.97,12.84 87.98,5.49 85.67,0.01C74.89,6.96 69.92,19.84 71.24,32.29M43.69,7.56C45.34,16.94 52.2,23.48 59.67,28.68C59.98,23.7 57.53,18.02 54.79,14C52.02,9.95 47.88,5.71 43.42,3.54C43.3,4.86 43.46,6.25 43.69,7.56M64.25,15.38C64.66,16.63 65.4,17.57 65.99,18.71C67.15,17.82 67.14,14.46 66.99,13.26C66.79,11.66 66.07,9.47 64.84,8.32C63.51,10.3 63.54,13.22 64.25,15.38M91.68,19.28C90.65,20.21 89.78,21.34 89.14,22.57C88.86,23.11 88.74,23.79 88.43,24.3C89.16,24.13 89.9,23.74 90.57,23.41C92.62,22.42 94.55,21.02 95.88,19.15C96.42,18.39 97.33,17.09 97.33,16.09C95.31,16.56 93.19,17.91 91.69,19.28M33.98,19.53C36.45,22.79 40.43,24.9 44.37,25.79C43.69,25.12 43.26,24.06 42.59,23.34C41.62,22.27 40.5,21.33 39.28,20.57C37.37,19.37 35.19,18.48 33,17.96C33.16,18.51 33.65,19.09 33.98,19.54M33.98,19.54L33.96,19.51L33.98,19.54M33.98,19.54M33.98,19.54M33.98,19.54M33.98,19.54M33.98,19.54M33.98,19.54M33.98,19.54M33.98,19.54M33.98,19.54M33.98,19.54M102.12,25.6C96.41,27.67 90.18,31.07 86.14,35.72C86.83,35.69 87.52,35.68 88.21,35.63C94.49,35.28 100.87,34.02 106.72,31.7C111.76,29.7 117.43,26.61 120.81,22.22C114.44,22.49 108.15,23.41 102.12,25.59M75.79,23.2C75.79,23.2 75.76,23.25 75.75,23.27C75.74,23.29 75.77,23.23 75.79,23.2C75.81,23.17 75.81,23.17 75.82,23.15C75.83,23.13 75.8,23.18 75.79,23.2M90.56,23.38C90.48,23.42 90.52,23.4 90.56,23.38L90.6,23.36C90.6,23.36 90.59,23.36 90.56,23.38M3.39,24.63C7.34,28.2 12.07,30.94 16.9,33.12C28.71,38.52 42.12,40.49 55.04,40.07C48.92,38.18 42.94,35.95 36.91,33.83C43.35,34.97 49.75,36.34 56.11,37.85C42.6,28.85 26.41,24.36 10.21,24.36C7.93,24.36 5.65,24.45 3.38,24.63M16.89,33.12C17.08,33.2 17.26,33.29 16.89,33.12C16.74,33.05 16.68,33.03 16.68,33.03C16.68,33.03 16.79,33.08 16.89,33.13M88.2,35.67C88.05,35.68 88.13,35.67 88.2,35.67C88.27,35.67 88.29,35.67 88.28,35.67L88.19,35.67M110.7,39.22C109.16,39.27 107.63,39.46 106.13,39.79C105.56,39.92 102.51,40.39 102.26,41.05C105.04,41.71 107.84,42.16 110.71,42.12C112.42,42.09 114.13,41.87 115.79,41.47C116.73,41.25 117.67,40.97 118.57,40.61C118.81,40.51 119.53,40.38 119.2,40.22C116.89,39.46 114.25,39.2 111.77,39.2C111.41,39.2 111.06,39.2 110.71,39.21M24.57,43.02C22.66,43.08 20.76,43.33 18.89,43.72C17.58,43.99 15.5,44.2 14.43,45C17.27,45.89 20.35,46.22 23.32,46.14C25.42,46.09 27.52,45.79 29.57,45.31C30.2,45.16 33.44,44.23 33.33,44.08C30.96,43.27 28.3,42.99 25.75,42.99C25.35,42.99 24.96,42.99 24.57,43.01M82.38,45.03C89.18,47.11 95.8,49.77 102.58,51.85C95.54,50.7 88.55,49.09 81.62,47.41C91.07,53.46 101.5,58.07 112.41,60.74C118.01,62.11 123.73,62.99 129.47,63.39C134.23,63.72 139.31,64.01 144.04,63.24C143.02,62.6 142.02,61.93 140.99,61.31C124.28,51.11 105.12,44.99 85.5,44.99C84.46,44.99 83.42,45.01 82.38,45.04M37.56,51.23C32.8,52.21 28.12,53.58 23.61,55.37C15.01,58.78 7.31,63.65 -0.01,69.24L0,69.24C15.65,68.71 31.46,63.36 44.29,54.42C46.42,52.95 48.34,51.26 50.36,49.65C49.96,49.63 49.55,49.62 49.14,49.62C45.31,49.62 41.25,50.46 37.57,51.22M43.3,84.08C39.37,95.48 37.26,108.08 37.6,120.15C41.08,116.64 44.2,112.74 47.13,108.77C58.9,92.82 67.01,73.97 65.85,53.83C64.69,33.69 53.83,82.34 50.24,88.12C51.43,81.41 61.65,55.07 62.77,52.95C53.97,61.6 47.32,72.43 43.3,84.08M44.29,54.42C44.05,54.59 44.17,54.5 44.29,54.42C44.36,54.37 44.43,54.33 44.43,54.33C44.43,54.33 44.39,54.36 44.29,54.42M81.85,70.43C83.69,75.08 86.06,79.52 88.87,83.65C94.16,91.44 100.92,98.74 108.58,104.26C107.99,101.06 107,97.89 105.92,94.82C100.56,79.62 91.19,67.04 78.29,57.43C78.64,61.84 80.23,66.36 81.85,70.44M115.13,74.6C114.42,73.71 113.73,72.8 112.94,71.96C112.15,71.12 112.93,71.95 112.89,71.91C112.81,71.82 112.84,71.86 112.89,71.91C108.87,67.56 103.48,64.01 97.68,62.57C101.77,68.4 108.26,72.77 115.13,74.6M34.15,71.69C31.63,74.01 28.74,77.23 27.51,80.5C33.91,77.95 40.08,72.88 43.08,66.59C43.22,66.32 43.33,66.05 43.46,65.78C40.14,66.61 36.6,69.42 34.15,71.68M43.08,66.59C43.05,66.65 43.07,66.62 43.08,66.59C43.09,66.56 43.1,66.56 43.1,66.56L43.08,66.59M112.89,71.9C112.89,71.9 112.92,71.94 112.94,71.95C112.96,71.96 112.92,71.92 112.89,71.9C112.86,71.88 112.89,71.9 112.89,71.9M74.58,96C75.58,94.25 75.64,91.24 75.74,89.26C75.89,86.32 75.58,83.41 74.77,80.58C74.17,78.46 73.17,76.63 72.21,74.66C69.89,82.13 71.28,89.09 74.58,96.01" style="fill:url(#_Radial1);fill-rule:nonzero;"/>
    </g>
  </g>
  <defs>
    <radialGradient id="_Radial1" cx="0" cy="0" r="1" gradientUnits="userSpaceOnUse" gradientTransform="matrix(66.32,0,0,-66.32,72.6708,61.426)">
      <stop offset="0" style="stop-color:rgb(237,28,36);stop-opacity:1"/>
      <stop offset="0.39" style="stop-color:rgb(237,28,36);stop-opacity:1"/>
      <stop offset="1" style="stop-color:rgb(196,21,28);stop-opacity:1"/>
    </radialGradient>
  </defs>
</svg>
